<?xml version="1.0" encoding="UTF-8" standalone="no"?>
<!DOCTYPE svg PUBLIC "-//W3C//DTD SVG 1.1//EN"
 "http://www.w3.org/Graphics/SVG/1.1/DTD/svg11.dtd">
<!-- Generated by graphviz version 2.38.0 (20140413.2041)
 -->
<!-- Title: controllers_diagram Pages: 1 -->
<svg width="1390pt" height="1206pt"
 viewBox="0.00 0.00 1390.23 1206.47" xmlns="http://www.w3.org/2000/svg" xmlns:xlink="http://www.w3.org/1999/xlink">
<g id="graph0" class="graph" transform="scale(1 1) rotate(0) translate(588.226 618.188)">
<title>controllers_diagram</title>
<polygon fill="none" stroke="none" points="-588.226,588.281 -588.226,-618.188 802,-618.188 802,588.281 -588.226,588.281"/>
<!-- _diagram_info -->
<g id="node1" class="node"><title>_diagram_info</title>
<text text-anchor="start" x="592" y="155.4" font-family="Times,serif" font-size="13.00">Controllers diagram</text>
<text text-anchor="start" x="592" y="169.4" font-family="Times,serif" font-size="13.00">Date: Apr 28 2018 &#45; 04:59</text>
<text text-anchor="start" x="592" y="183.4" font-family="Times,serif" font-size="13.00">Migration version: 20180403065023</text>
<text text-anchor="start" x="592" y="197.4" font-family="Times,serif" font-size="13.00">Generated by RailRoady 1.5.3</text>
<text text-anchor="start" x="592" y="211.4" font-family="Times,serif" font-size="13.00">http://railroady.prestonlee.com</text>
</g>
<!-- UploadController -->
<g id="node2" class="node"><title>UploadController</title>
<path fill="none" stroke="black" d="M596,-0.5C596,-0.5 684,-0.5 684,-0.5 690,-0.5 696,-6.5 696,-12.5 696,-12.5 696,-141.5 696,-141.5 696,-147.5 690,-153.5 684,-153.5 684,-153.5 596,-153.5 596,-153.5 590,-153.5 584,-147.5 584,-141.5 584,-141.5 584,-12.5 584,-12.5 584,-6.5 590,-0.5 596,-0.5"/>
<text text-anchor="middle" x="640" y="-138.3" font-family="Times,serif" font-size="14.00">UploadController</text>
<polyline fill="none" stroke="black" points="584,-130.5 696,-130.5 "/>
<text text-anchor="start" x="592" y="-115.3" font-family="Times,serif" font-size="14.00">access_file</text>
<text text-anchor="start" x="592" y="-100.3" font-family="Times,serif" font-size="14.00">file_validation</text>
<text text-anchor="start" x="592" y="-85.3" font-family="Times,serif" font-size="14.00">image_validation</text>
<text text-anchor="start" x="592" y="-70.3" font-family="Times,serif" font-size="14.00">upload_file</text>
<text text-anchor="start" x="592" y="-55.3" font-family="Times,serif" font-size="14.00">upload_image</text>
<polyline fill="none" stroke="black" points="584,-47.5 696,-47.5 "/>
<polyline fill="none" stroke="black" points="584,-23.5 696,-23.5 "/>
<text text-anchor="start" x="592" y="-8.3" font-family="Times,serif" font-size="14.00">_layout</text>
</g>
<!-- HomesController -->
<g id="node3" class="node"><title>HomesController</title>
<path fill="none" stroke="black" d="M-547.559,209.375C-547.559,209.375 -460.559,209.375 -460.559,209.375 -454.559,209.375 -448.559,203.375 -448.559,197.375 -448.559,197.375 -448.559,128.375 -448.559,128.375 -448.559,122.375 -454.559,116.375 -460.559,116.375 -460.559,116.375 -547.559,116.375 -547.559,116.375 -553.559,116.375 -559.559,122.375 -559.559,128.375 -559.559,128.375 -559.559,197.375 -559.559,197.375 -559.559,203.375 -553.559,209.375 -547.559,209.375"/>
<text text-anchor="middle" x="-504.059" y="131.575" font-family="Times,serif" font-size="14.00">HomesController</text>
<polyline fill="none" stroke="black" points="-559.559,139.375 -448.559,139.375 "/>
<text text-anchor="start" x="-551.559" y="154.575" font-family="Times,serif" font-size="14.00">index</text>
<polyline fill="none" stroke="black" points="-559.559,162.375 -448.559,162.375 "/>
<polyline fill="none" stroke="black" points="-559.559,186.375 -448.559,186.375 "/>
<text text-anchor="start" x="-551.559" y="201.575" font-family="Times,serif" font-size="14.00">_layout</text>
</g>
<!-- DiagramsController -->
<g id="node4" class="node"><title>DiagramsController</title>
<path fill="none" stroke="black" d="M25.4198,216.473C25.4198,216.473 126.42,216.473 126.42,216.473 132.42,216.473 138.42,210.473 138.42,204.473 138.42,204.473 138.42,135.473 138.42,135.473 138.42,129.473 132.42,123.473 126.42,123.473 126.42,123.473 25.4198,123.473 25.4198,123.473 19.4198,123.473 13.4198,129.473 13.4198,135.473 13.4198,135.473 13.4198,204.473 13.4198,204.473 13.4198,210.473 19.4198,216.473 25.4198,216.473"/>
<text text-anchor="middle" x="75.9198" y="138.673" font-family="Times,serif" font-size="14.00">DiagramsController</text>
<polyline fill="none" stroke="black" points="13.4198,146.473 138.42,146.473 "/>
<text text-anchor="start" x="21.4198" y="161.673" font-family="Times,serif" font-size="14.00">index</text>
<polyline fill="none" stroke="black" points="13.4198,169.473 138.42,169.473 "/>
<polyline fill="none" stroke="black" points="13.4198,193.473 138.42,193.473 "/>
<text text-anchor="start" x="21.4198" y="208.673" font-family="Times,serif" font-size="14.00">_layout</text>
</g>
<!-- TheoriesController -->
<g id="node5" class="node"><title>TheoriesController</title>
<path fill="none" stroke="black" d="M-250.435,551.333C-250.435,551.333 -155.435,551.333 -155.435,551.333 -149.435,551.333 -143.435,545.333 -143.435,539.333 -143.435,539.333 -143.435,335.333 -143.435,335.333 -143.435,329.333 -149.435,323.333 -155.435,323.333 -155.435,323.333 -250.435,323.333 -250.435,323.333 -256.435,323.333 -262.435,329.333 -262.435,335.333 -262.435,335.333 -262.435,539.333 -262.435,539.333 -262.435,545.333 -256.435,551.333 -250.435,551.333"/>
<text text-anchor="middle" x="-202.935" y="338.533" font-family="Times,serif" font-size="14.00">TheoriesController</text>
<polyline fill="none" stroke="black" points="-262.435,346.333 -143.435,346.333 "/>
<text text-anchor="start" x="-254.435" y="361.533" font-family="Times,serif" font-size="14.00">create</text>
<text text-anchor="start" x="-254.435" y="376.533" font-family="Times,serif" font-size="14.00">destroy</text>
<text text-anchor="start" x="-254.435" y="391.533" font-family="Times,serif" font-size="14.00">edit</text>
<text text-anchor="start" x="-254.435" y="406.533" font-family="Times,serif" font-size="14.00">index</text>
<text text-anchor="start" x="-254.435" y="421.533" font-family="Times,serif" font-size="14.00">new</text>
<text text-anchor="start" x="-254.435" y="436.533" font-family="Times,serif" font-size="14.00">show</text>
<text text-anchor="start" x="-254.435" y="451.533" font-family="Times,serif" font-size="14.00">update</text>
<polyline fill="none" stroke="black" points="-262.435,459.333 -143.435,459.333 "/>
<polyline fill="none" stroke="black" points="-262.435,483.333 -143.435,483.333 "/>
<text text-anchor="start" x="-254.435" y="498.533" font-family="Times,serif" font-size="14.00">_layout</text>
<text text-anchor="start" x="-254.435" y="513.533" font-family="Times,serif" font-size="14.00">find_theory</text>
<text text-anchor="start" x="-254.435" y="528.533" font-family="Times,serif" font-size="14.00">not_found</text>
<text text-anchor="start" x="-254.435" y="543.533" font-family="Times,serif" font-size="14.00">theory_params</text>
</g>
<!-- AttemptsController -->
<g id="node6" class="node"><title>AttemptsController</title>
<path fill="none" stroke="black" d="M-563.265,-339.198C-563.265,-339.198 -465.265,-339.198 -465.265,-339.198 -459.265,-339.198 -453.265,-345.198 -453.265,-351.198 -453.265,-351.198 -453.265,-510.198 -453.265,-510.198 -453.265,-516.198 -459.265,-522.198 -465.265,-522.198 -465.265,-522.198 -563.265,-522.198 -563.265,-522.198 -569.265,-522.198 -575.265,-516.198 -575.265,-510.198 -575.265,-510.198 -575.265,-351.198 -575.265,-351.198 -575.265,-345.198 -569.265,-339.198 -563.265,-339.198"/>
<text text-anchor="middle" x="-514.265" y="-506.998" font-family="Times,serif" font-size="14.00">AttemptsController</text>
<polyline fill="none" stroke="black" points="-575.265,-499.198 -453.265,-499.198 "/>
<text text-anchor="start" x="-567.265" y="-483.998" font-family="Times,serif" font-size="14.00">create</text>
<text text-anchor="start" x="-567.265" y="-468.998" font-family="Times,serif" font-size="14.00">new</text>
<text text-anchor="start" x="-567.265" y="-453.998" font-family="Times,serif" font-size="14.00">show</text>
<polyline fill="none" stroke="black" points="-575.265,-446.198 -453.265,-446.198 "/>
<polyline fill="none" stroke="black" points="-575.265,-422.198 -453.265,-422.198 "/>
<text text-anchor="start" x="-567.265" y="-406.998" font-family="Times,serif" font-size="14.00">_layout</text>
<text text-anchor="start" x="-567.265" y="-391.998" font-family="Times,serif" font-size="14.00">find_quiz</text>
<text text-anchor="start" x="-567.265" y="-376.998" font-family="Times,serif" font-size="14.00">get_right_answers</text>
<text text-anchor="start" x="-567.265" y="-361.998" font-family="Times,serif" font-size="14.00">get_users_answers</text>
<text text-anchor="start" x="-567.265" y="-346.998" font-family="Times,serif" font-size="14.00">not_found</text>
</g>
<!-- PracticesController -->
<g id="node7" class="node"><title>PracticesController</title>
<path fill="none" stroke="black" d="M-249.092,-44.0404C-249.092,-44.0404 -152.092,-44.0404 -152.092,-44.0404 -146.092,-44.0404 -140.092,-50.0404 -140.092,-56.0404 -140.092,-56.0404 -140.092,-260.04 -140.092,-260.04 -140.092,-266.04 -146.092,-272.04 -152.092,-272.04 -152.092,-272.04 -249.092,-272.04 -249.092,-272.04 -255.092,-272.04 -261.092,-266.04 -261.092,-260.04 -261.092,-260.04 -261.092,-56.0404 -261.092,-56.0404 -261.092,-50.0404 -255.092,-44.0404 -249.092,-44.0404"/>
<text text-anchor="middle" x="-200.592" y="-256.84" font-family="Times,serif" font-size="14.00">PracticesController</text>
<polyline fill="none" stroke="black" points="-261.092,-249.04 -140.092,-249.04 "/>
<text text-anchor="start" x="-253.092" y="-233.84" font-family="Times,serif" font-size="14.00">create</text>
<text text-anchor="start" x="-253.092" y="-218.84" font-family="Times,serif" font-size="14.00">destroy</text>
<text text-anchor="start" x="-253.092" y="-203.84" font-family="Times,serif" font-size="14.00">edit</text>
<text text-anchor="start" x="-253.092" y="-188.84" font-family="Times,serif" font-size="14.00">index</text>
<text text-anchor="start" x="-253.092" y="-173.84" font-family="Times,serif" font-size="14.00">new</text>
<text text-anchor="start" x="-253.092" y="-158.84" font-family="Times,serif" font-size="14.00">show</text>
<text text-anchor="start" x="-253.092" y="-143.84" font-family="Times,serif" font-size="14.00">update</text>
<polyline fill="none" stroke="black" points="-261.092,-136.04 -140.092,-136.04 "/>
<polyline fill="none" stroke="black" points="-261.092,-112.04 -140.092,-112.04 "/>
<text text-anchor="start" x="-253.092" y="-96.8404" font-family="Times,serif" font-size="14.00">_layout</text>
<text text-anchor="start" x="-253.092" y="-81.8404" font-family="Times,serif" font-size="14.00">find_practice</text>
<text text-anchor="start" x="-253.092" y="-66.8404" font-family="Times,serif" font-size="14.00">not_found</text>
<text text-anchor="start" x="-253.092" y="-51.8404" font-family="Times,serif" font-size="14.00">practice_params</text>
</g>
<!-- QuizzesController -->
<g id="node8" class="node"><title>QuizzesController</title>
<path fill="none" stroke="black" d="M-555.493,6.28681C-555.493,6.28681 -463.493,6.28681 -463.493,6.28681 -457.493,6.28681 -451.493,0.286807 -451.493,-5.71319 -451.493,-5.71319 -451.493,-209.713 -451.493,-209.713 -451.493,-215.713 -457.493,-221.713 -463.493,-221.713 -463.493,-221.713 -555.493,-221.713 -555.493,-221.713 -561.493,-221.713 -567.493,-215.713 -567.493,-209.713 -567.493,-209.713 -567.493,-5.71319 -567.493,-5.71319 -567.493,0.286807 -561.493,6.28681 -555.493,6.28681"/>
<text text-anchor="middle" x="-509.493" y="-206.513" font-family="Times,serif" font-size="14.00">QuizzesController</text>
<polyline fill="none" stroke="black" points="-567.493,-198.713 -451.493,-198.713 "/>
<text text-anchor="start" x="-559.493" y="-183.513" font-family="Times,serif" font-size="14.00">create</text>
<text text-anchor="start" x="-559.493" y="-168.513" font-family="Times,serif" font-size="14.00">destroy</text>
<text text-anchor="start" x="-559.493" y="-153.513" font-family="Times,serif" font-size="14.00">edit</text>
<text text-anchor="start" x="-559.493" y="-138.513" font-family="Times,serif" font-size="14.00">index</text>
<text text-anchor="start" x="-559.493" y="-123.513" font-family="Times,serif" font-size="14.00">new</text>
<text text-anchor="start" x="-559.493" y="-108.513" font-family="Times,serif" font-size="14.00">show</text>
<text text-anchor="start" x="-559.493" y="-93.5132" font-family="Times,serif" font-size="14.00">update</text>
<polyline fill="none" stroke="black" points="-567.493,-85.7132 -451.493,-85.7132 "/>
<polyline fill="none" stroke="black" points="-567.493,-61.7132 -451.493,-61.7132 "/>
<text text-anchor="start" x="-559.493" y="-46.5132" font-family="Times,serif" font-size="14.00">_layout</text>
<text text-anchor="start" x="-559.493" y="-31.5132" font-family="Times,serif" font-size="14.00">find_quiz</text>
<text text-anchor="start" x="-559.493" y="-16.5132" font-family="Times,serif" font-size="14.00">not_found</text>
<text text-anchor="start" x="-559.493" y="-1.51319" font-family="Times,serif" font-size="14.00">quiz_params</text>
</g>
<!-- DeterminationsController -->
<g id="node9" class="node"><title>DeterminationsController</title>
<path fill="none" stroke="black" d="M-572.226,583.781C-572.226,583.781 -440.226,583.781 -440.226,583.781 -434.226,583.781 -428.226,577.781 -428.226,571.781 -428.226,571.781 -428.226,367.781 -428.226,367.781 -428.226,361.781 -434.226,355.781 -440.226,355.781 -440.226,355.781 -572.226,355.781 -572.226,355.781 -578.226,355.781 -584.226,361.781 -584.226,367.781 -584.226,367.781 -584.226,571.781 -584.226,571.781 -584.226,577.781 -578.226,583.781 -572.226,583.781"/>
<text text-anchor="middle" x="-506.226" y="370.981" font-family="Times,serif" font-size="14.00">DeterminationsController</text>
<polyline fill="none" stroke="black" points="-584.226,378.781 -428.226,378.781 "/>
<text text-anchor="start" x="-576.226" y="393.981" font-family="Times,serif" font-size="14.00">create</text>
<text text-anchor="start" x="-576.226" y="408.981" font-family="Times,serif" font-size="14.00">destroy</text>
<text text-anchor="start" x="-576.226" y="423.981" font-family="Times,serif" font-size="14.00">edit</text>
<text text-anchor="start" x="-576.226" y="438.981" font-family="Times,serif" font-size="14.00">index</text>
<text text-anchor="start" x="-576.226" y="453.981" font-family="Times,serif" font-size="14.00">new</text>
<text text-anchor="start" x="-576.226" y="468.981" font-family="Times,serif" font-size="14.00">show</text>
<text text-anchor="start" x="-576.226" y="483.981" font-family="Times,serif" font-size="14.00">update</text>
<polyline fill="none" stroke="black" points="-584.226,491.781 -428.226,491.781 "/>
<polyline fill="none" stroke="black" points="-584.226,515.781 -428.226,515.781 "/>
<text text-anchor="start" x="-576.226" y="530.981" font-family="Times,serif" font-size="14.00">_layout</text>
<text text-anchor="start" x="-576.226" y="545.981" font-family="Times,serif" font-size="14.00">determination_params</text>
<text text-anchor="start" x="-576.226" y="560.981" font-family="Times,serif" font-size="14.00">find_determination</text>
<text text-anchor="start" x="-576.226" y="575.981" font-family="Times,serif" font-size="14.00">not_found</text>
</g>
<!-- ApplicationController -->
<g id="node10" class="node"><title>ApplicationController</title>
<path fill="none" stroke="black" d="M-249.429,156.598C-249.429,156.598 -137.429,156.598 -137.429,156.598 -131.429,156.598 -125.429,150.598 -125.429,144.598 -125.429,144.598 -125.429,74.5976 -125.429,74.5976 -125.429,68.5976 -131.429,62.5976 -137.429,62.5976 -137.429,62.5976 -249.429,62.5976 -249.429,62.5976 -255.429,62.5976 -261.429,68.5976 -261.429,74.5976 -261.429,74.5976 -261.429,144.598 -261.429,144.598 -261.429,150.598 -255.429,156.598 -249.429,156.598"/>
<text text-anchor="middle" x="-193.429" y="77.7976" font-family="Times,serif" font-size="14.00">ApplicationController</text>
<polyline fill="none" stroke="black" points="-261.429,85.5976 -125.429,85.5976 "/>
<polyline fill="none" stroke="black" points="-261.429,109.598 -125.429,109.598 "/>
<polyline fill="none" stroke="black" points="-261.429,133.598 -125.429,133.598 "/>
<text text-anchor="start" x="-253.429" y="148.798" font-family="Times,serif" font-size="14.00">_layout</text>
</g>
<!-- ApplicationController&#45;&gt;HomesController -->
<g id="edge1" class="edge"><title>ApplicationController&#45;&gt;HomesController</title>
<path fill="none" stroke="black" d="M-261.598,121.29C-317.676,130.908 -396.164,144.37 -448.483,153.343"/>
</g>
<!-- ApplicationController&#45;&gt;DiagramsController -->
<g id="edge2" class="edge"><title>ApplicationController&#45;&gt;DiagramsController</title>
<path fill="none" stroke="black" d="M-125.113,124.911C-82.5648,134.448 -28.2355,146.626 13.2147,155.918"/>
</g>
<!-- ApplicationController&#45;&gt;TheoriesController -->
<g id="edge3" class="edge"><title>ApplicationController&#45;&gt;TheoriesController</title>
<path fill="none" stroke="black" d="M-194.801,156.903C-196.059,200.245 -197.97,266.142 -199.624,323.169"/>
</g>
<!-- ApplicationController&#45;&gt;AttemptsController -->
<g id="edge4" class="edge"><title>ApplicationController&#45;&gt;AttemptsController</title>
<path fill="none" stroke="black" d="M-221.34,62.5951C-274.395,-26.7501 -390.652,-222.531 -459.686,-338.786"/>
</g>
<!-- ApplicationController&#45;&gt;PracticesController -->
<g id="edge5" class="edge"><title>ApplicationController&#45;&gt;PracticesController</title>
<path fill="none" stroke="black" d="M-194.693,62.3654C-195.485,32.8025 -196.54,-6.64073 -197.54,-43.9844"/>
</g>
<!-- ApplicationController&#45;&gt;QuizzesController -->
<g id="edge6" class="edge"><title>ApplicationController&#45;&gt;QuizzesController</title>
<path fill="none" stroke="black" d="M-261.621,62.712C-318.15,23.8454 -397.644,-30.8111 -451.236,-67.658"/>
</g>
<!-- ApplicationController&#45;&gt;DeterminationsController -->
<g id="edge7" class="edge"><title>ApplicationController&#45;&gt;DeterminationsController</title>
<path fill="none" stroke="black" d="M-234.322,156.685C-283.34,213.129 -366.559,308.955 -428.051,379.762"/>
</g>
<!-- DeviseController -->
<g id="node11" class="node"><title>DeviseController</title>
<path fill="none" stroke="black" d="M-10.2408,75.2964C-10.2408,75.2964 156.759,75.2964 156.759,75.2964 162.759,75.2964 168.759,69.2964 168.759,63.2964 168.759,63.2964 168.759,-304.704 168.759,-304.704 168.759,-310.704 162.759,-316.704 156.759,-316.704 156.759,-316.704 -10.2408,-316.704 -10.2408,-316.704 -16.2408,-316.704 -22.2408,-310.704 -22.2408,-304.704 -22.2408,-304.704 -22.2408,63.2964 -22.2408,63.2964 -22.2408,69.2964 -16.2408,75.2964 -10.2408,75.2964"/>
<text text-anchor="middle" x="73.2592" y="-301.504" font-family="Times,serif" font-size="14.00">DeviseController</text>
<polyline fill="none" stroke="black" points="-22.2408,-293.704 168.759,-293.704 "/>
<text text-anchor="start" x="-14.2408" y="-278.504" font-family="Times,serif" font-size="14.00">_prefixes</text>
<polyline fill="none" stroke="black" points="-22.2408,-270.704 168.759,-270.704 "/>
<text text-anchor="start" x="-14.2408" y="-255.504" font-family="Times,serif" font-size="14.00">assert_is_devise_resource!</text>
<text text-anchor="start" x="-14.2408" y="-240.504" font-family="Times,serif" font-size="14.00">clean_up_passwords</text>
<text text-anchor="start" x="-14.2408" y="-225.504" font-family="Times,serif" font-size="14.00">devise_i18n_options</text>
<text text-anchor="start" x="-14.2408" y="-210.504" font-family="Times,serif" font-size="14.00">devise_mapping</text>
<text text-anchor="start" x="-14.2408" y="-195.504" font-family="Times,serif" font-size="14.00">find_message</text>
<text text-anchor="start" x="-14.2408" y="-180.504" font-family="Times,serif" font-size="14.00">navigational_formats</text>
<text text-anchor="start" x="-14.2408" y="-165.504" font-family="Times,serif" font-size="14.00">require_no_authentication</text>
<text text-anchor="start" x="-14.2408" y="-150.504" font-family="Times,serif" font-size="14.00">resource</text>
<text text-anchor="start" x="-14.2408" y="-135.504" font-family="Times,serif" font-size="14.00">resource=</text>
<text text-anchor="start" x="-14.2408" y="-120.504" font-family="Times,serif" font-size="14.00">resource_class</text>
<text text-anchor="start" x="-14.2408" y="-105.504" font-family="Times,serif" font-size="14.00">resource_name</text>
<text text-anchor="start" x="-14.2408" y="-90.5036" font-family="Times,serif" font-size="14.00">resource_params</text>
<text text-anchor="start" x="-14.2408" y="-75.5036" font-family="Times,serif" font-size="14.00">respond_with_navigational</text>
<text text-anchor="start" x="-14.2408" y="-60.5036" font-family="Times,serif" font-size="14.00">scope_name</text>
<text text-anchor="start" x="-14.2408" y="-45.5036" font-family="Times,serif" font-size="14.00">set_flash_message</text>
<text text-anchor="start" x="-14.2408" y="-30.5036" font-family="Times,serif" font-size="14.00">set_flash_message!</text>
<text text-anchor="start" x="-14.2408" y="-15.5036" font-family="Times,serif" font-size="14.00">set_minimum_password_length</text>
<text text-anchor="start" x="-14.2408" y="-0.50355" font-family="Times,serif" font-size="14.00">signed_in_resource</text>
<text text-anchor="start" x="-14.2408" y="14.4964" font-family="Times,serif" font-size="14.00">successfully_sent?</text>
<text text-anchor="start" x="-14.2408" y="29.4964" font-family="Times,serif" font-size="14.00">translation_scope</text>
<text text-anchor="start" x="-14.2408" y="44.4964" font-family="Times,serif" font-size="14.00">unknown_action!</text>
<polyline fill="none" stroke="black" points="-22.2408,52.2964 168.759,52.2964 "/>
<text text-anchor="start" x="-14.2408" y="67.4964" font-family="Times,serif" font-size="14.00">_layout</text>
</g>
<!-- ApplicationController&#45;&gt;DeviseController -->
<g id="edge8" class="edge"><title>ApplicationController&#45;&gt;DeviseController</title>
<path fill="none" stroke="black" d="M-138.817,62.437C-105.292,33.4857 -61.4213,-4.39908 -22.2858,-38.1948"/>
</g>
<!-- Devise::ConfirmationsController -->
<g id="node12" class="node"><title>Devise::ConfirmationsController</title>
<path fill="none" stroke="black" d="M219.665,489.541C219.665,489.541 495.665,489.541 495.665,489.541 501.665,489.541 507.665,483.541 507.665,477.541 507.665,477.541 507.665,349.541 507.665,349.541 507.665,343.541 501.665,337.541 495.665,337.541 495.665,337.541 219.665,337.541 219.665,337.541 213.665,337.541 207.665,343.541 207.665,349.541 207.665,349.541 207.665,477.541 207.665,477.541 207.665,483.541 213.665,489.541 219.665,489.541"/>
<text text-anchor="middle" x="357.665" y="352.741" font-family="Times,serif" font-size="14.00">Devise::ConfirmationsController</text>
<polyline fill="none" stroke="black" points="207.665,360.541 507.665,360.541 "/>
<text text-anchor="start" x="215.665" y="375.741" font-family="Times,serif" font-size="14.00">create</text>
<text text-anchor="start" x="215.665" y="390.741" font-family="Times,serif" font-size="14.00">new</text>
<text text-anchor="start" x="215.665" y="405.741" font-family="Times,serif" font-size="14.00">show</text>
<polyline fill="none" stroke="black" points="207.665,413.541 507.665,413.541 "/>
<text text-anchor="start" x="215.665" y="428.741" font-family="Times,serif" font-size="14.00">after_confirmation_path_for</text>
<text text-anchor="start" x="215.665" y="443.741" font-family="Times,serif" font-size="14.00">after_resending_confirmation_instructions_path_for</text>
<text text-anchor="start" x="215.665" y="458.741" font-family="Times,serif" font-size="14.00">translation_scope</text>
<polyline fill="none" stroke="black" points="207.665,466.541 507.665,466.541 "/>
<text text-anchor="start" x="215.665" y="481.741" font-family="Times,serif" font-size="14.00">_layout</text>
</g>
<!-- DeviseController&#45;&gt;Devise::ConfirmationsController -->
<g id="edge9" class="edge"><title>DeviseController&#45;&gt;Devise::ConfirmationsController</title>
<path fill="none" stroke="black" d="M168.951,59.0503C219.444,153.898 278.728,265.261 317.184,337.499"/>
</g>
<!-- Devise::UnlocksController -->
<g id="node13" class="node"><title>Devise::UnlocksController</title>
<path fill="none" stroke="black" d="M-53.5113,561.467C-53.5113,561.467 178.489,561.467 178.489,561.467 184.489,561.467 190.489,555.467 190.489,549.467 190.489,549.467 190.489,421.467 190.489,421.467 190.489,415.467 184.489,409.467 178.489,409.467 178.489,409.467 -53.5113,409.467 -53.5113,409.467 -59.5113,409.467 -65.5113,415.467 -65.5113,421.467 -65.5113,421.467 -65.5113,549.467 -65.5113,549.467 -65.5113,555.467 -59.5113,561.467 -53.5113,561.467"/>
<text text-anchor="middle" x="62.4887" y="424.667" font-family="Times,serif" font-size="14.00">Devise::UnlocksController</text>
<polyline fill="none" stroke="black" points="-65.5113,432.467 190.489,432.467 "/>
<text text-anchor="start" x="-57.5113" y="447.667" font-family="Times,serif" font-size="14.00">create</text>
<text text-anchor="start" x="-57.5113" y="462.667" font-family="Times,serif" font-size="14.00">new</text>
<text text-anchor="start" x="-57.5113" y="477.667" font-family="Times,serif" font-size="14.00">show</text>
<polyline fill="none" stroke="black" points="-65.5113,485.467 190.489,485.467 "/>
<text text-anchor="start" x="-57.5113" y="500.667" font-family="Times,serif" font-size="14.00">after_sending_unlock_instructions_path_for</text>
<text text-anchor="start" x="-57.5113" y="515.667" font-family="Times,serif" font-size="14.00">after_unlock_path_for</text>
<text text-anchor="start" x="-57.5113" y="530.667" font-family="Times,serif" font-size="14.00">translation_scope</text>
<polyline fill="none" stroke="black" points="-65.5113,538.467 190.489,538.467 "/>
<text text-anchor="start" x="-57.5113" y="553.667" font-family="Times,serif" font-size="14.00">_layout</text>
</g>
<!-- DeviseController&#45;&gt;Devise::UnlocksController -->
<g id="edge10" class="edge"><title>DeviseController&#45;&gt;Devise::UnlocksController</title>
<path fill="none" stroke="black" d="M17.5565,75.4205C14.6218,90.5105 12.1094,105.583 10.2198,120.273 -2.65034,220.324 20.1003,335.496 39.513,409.313"/>
</g>
<!-- Devise::RegistrationsController -->
<g id="node14" class="node"><title>Devise::RegistrationsController</title>
<path fill="none" stroke="black" d="M-295.304,-296.688C-295.304,-296.688 -126.304,-296.688 -126.304,-296.688 -120.304,-296.688 -114.304,-302.688 -114.304,-308.688 -114.304,-308.688 -114.304,-601.688 -114.304,-601.688 -114.304,-607.688 -120.304,-613.688 -126.304,-613.688 -126.304,-613.688 -295.304,-613.688 -295.304,-613.688 -301.304,-613.688 -307.304,-607.688 -307.304,-601.688 -307.304,-601.688 -307.304,-308.688 -307.304,-308.688 -307.304,-302.688 -301.304,-296.688 -295.304,-296.688"/>
<text text-anchor="middle" x="-210.804" y="-598.488" font-family="Times,serif" font-size="14.00">Devise::RegistrationsController</text>
<polyline fill="none" stroke="black" points="-307.304,-590.688 -114.304,-590.688 "/>
<text text-anchor="start" x="-299.304" y="-575.488" font-family="Times,serif" font-size="14.00">cancel</text>
<text text-anchor="start" x="-299.304" y="-560.488" font-family="Times,serif" font-size="14.00">create</text>
<text text-anchor="start" x="-299.304" y="-545.488" font-family="Times,serif" font-size="14.00">destroy</text>
<text text-anchor="start" x="-299.304" y="-530.488" font-family="Times,serif" font-size="14.00">edit</text>
<text text-anchor="start" x="-299.304" y="-515.488" font-family="Times,serif" font-size="14.00">new</text>
<text text-anchor="start" x="-299.304" y="-500.488" font-family="Times,serif" font-size="14.00">update</text>
<polyline fill="none" stroke="black" points="-307.304,-492.688 -114.304,-492.688 "/>
<text text-anchor="start" x="-299.304" y="-477.488" font-family="Times,serif" font-size="14.00">account_update_params</text>
<text text-anchor="start" x="-299.304" y="-462.488" font-family="Times,serif" font-size="14.00">after_inactive_sign_up_path_for</text>
<text text-anchor="start" x="-299.304" y="-447.488" font-family="Times,serif" font-size="14.00">after_sign_up_path_for</text>
<text text-anchor="start" x="-299.304" y="-432.488" font-family="Times,serif" font-size="14.00">after_update_path_for</text>
<text text-anchor="start" x="-299.304" y="-417.488" font-family="Times,serif" font-size="14.00">authenticate_scope!</text>
<text text-anchor="start" x="-299.304" y="-402.488" font-family="Times,serif" font-size="14.00">build_resource</text>
<text text-anchor="start" x="-299.304" y="-387.488" font-family="Times,serif" font-size="14.00">sign_up</text>
<text text-anchor="start" x="-299.304" y="-372.488" font-family="Times,serif" font-size="14.00">sign_up_params</text>
<text text-anchor="start" x="-299.304" y="-357.488" font-family="Times,serif" font-size="14.00">translation_scope</text>
<text text-anchor="start" x="-299.304" y="-342.488" font-family="Times,serif" font-size="14.00">update_needs_confirmation?</text>
<text text-anchor="start" x="-299.304" y="-327.488" font-family="Times,serif" font-size="14.00">update_resource</text>
<polyline fill="none" stroke="black" points="-307.304,-319.688 -114.304,-319.688 "/>
<text text-anchor="start" x="-299.304" y="-304.488" font-family="Times,serif" font-size="14.00">_layout</text>
</g>
<!-- DeviseController&#45;&gt;Devise::RegistrationsController -->
<g id="edge11" class="edge"><title>DeviseController&#45;&gt;Devise::RegistrationsController</title>
<path fill="none" stroke="black" d="M-22.5157,-233.478C-52.0716,-268.28 -84.6275,-306.615 -114.237,-341.479"/>
</g>
<!-- Devise::OmniauthCallbacksController -->
<g id="node15" class="node"><title>Devise::OmniauthCallbacksController</title>
<path fill="none" stroke="black" d="M257.778,84.7251C257.778,84.7251 458.778,84.7251 458.778,84.7251 464.778,84.7251 470.778,78.7251 470.778,72.7251 470.778,72.7251 470.778,-55.2749 470.778,-55.2749 470.778,-61.2749 464.778,-67.2749 458.778,-67.2749 458.778,-67.2749 257.778,-67.2749 257.778,-67.2749 251.778,-67.2749 245.778,-61.2749 245.778,-55.2749 245.778,-55.2749 245.778,72.7251 245.778,72.7251 245.778,78.7251 251.778,84.7251 257.778,84.7251"/>
<text text-anchor="middle" x="358.278" y="-52.0749" font-family="Times,serif" font-size="14.00">Devise::OmniauthCallbacksController</text>
<polyline fill="none" stroke="black" points="245.778,-44.2749 470.778,-44.2749 "/>
<text text-anchor="start" x="253.778" y="-29.0749" font-family="Times,serif" font-size="14.00">failure</text>
<text text-anchor="start" x="253.778" y="-14.0749" font-family="Times,serif" font-size="14.00">passthru</text>
<polyline fill="none" stroke="black" points="245.778,-6.27486 470.778,-6.27486 "/>
<text text-anchor="start" x="253.778" y="8.92514" font-family="Times,serif" font-size="14.00">after_omniauth_failure_path_for</text>
<text text-anchor="start" x="253.778" y="23.9251" font-family="Times,serif" font-size="14.00">failed_strategy</text>
<text text-anchor="start" x="253.778" y="38.9251" font-family="Times,serif" font-size="14.00">failure_message</text>
<text text-anchor="start" x="253.778" y="53.9251" font-family="Times,serif" font-size="14.00">translation_scope</text>
<polyline fill="none" stroke="black" points="245.778,61.7251 470.778,61.7251 "/>
<text text-anchor="start" x="253.778" y="76.9251" font-family="Times,serif" font-size="14.00">_layout</text>
</g>
<!-- DeviseController&#45;&gt;Devise::OmniauthCallbacksController -->
<g id="edge12" class="edge"><title>DeviseController&#45;&gt;Devise::OmniauthCallbacksController</title>
<path fill="none" stroke="black" d="M168.959,-77.2456C193.541,-66.083 220.213,-53.9712 245.567,-42.4575"/>
</g>
<!-- Devise::SessionsController -->
<g id="node16" class="node"><title>Devise::SessionsController</title>
<path fill="none" stroke="black" d="M283.432,-288.8C283.432,-288.8 423.432,-288.8 423.432,-288.8 429.432,-288.8 435.432,-294.8 435.432,-300.8 435.432,-300.8 435.432,-488.8 435.432,-488.8 435.432,-494.8 429.432,-500.8 423.432,-500.8 423.432,-500.8 283.432,-500.8 283.432,-500.8 277.432,-500.8 271.432,-494.8 271.432,-488.8 271.432,-488.8 271.432,-300.8 271.432,-300.8 271.432,-294.8 277.432,-288.8 283.432,-288.8"/>
<text text-anchor="middle" x="353.432" y="-485.6" font-family="Times,serif" font-size="14.00">Devise::SessionsController</text>
<polyline fill="none" stroke="black" points="271.432,-477.8 435.432,-477.8 "/>
<text text-anchor="start" x="279.432" y="-462.6" font-family="Times,serif" font-size="14.00">create</text>
<text text-anchor="start" x="279.432" y="-447.6" font-family="Times,serif" font-size="14.00">destroy</text>
<text text-anchor="start" x="279.432" y="-432.6" font-family="Times,serif" font-size="14.00">new</text>
<polyline fill="none" stroke="black" points="271.432,-424.8 435.432,-424.8 "/>
<text text-anchor="start" x="279.432" y="-409.6" font-family="Times,serif" font-size="14.00">auth_options</text>
<text text-anchor="start" x="279.432" y="-394.6" font-family="Times,serif" font-size="14.00">serialize_options</text>
<text text-anchor="start" x="279.432" y="-379.6" font-family="Times,serif" font-size="14.00">sign_in_params</text>
<text text-anchor="start" x="279.432" y="-364.6" font-family="Times,serif" font-size="14.00">translation_scope</text>
<polyline fill="none" stroke="black" points="271.432,-356.8 435.432,-356.8 "/>
<text text-anchor="start" x="279.432" y="-341.6" font-family="Times,serif" font-size="14.00">_layout</text>
<text text-anchor="start" x="279.432" y="-326.6" font-family="Times,serif" font-size="14.00">all_signed_out?</text>
<text text-anchor="start" x="279.432" y="-311.6" font-family="Times,serif" font-size="14.00">respond_to_on_destroy</text>
<text text-anchor="start" x="279.432" y="-296.6" font-family="Times,serif" font-size="14.00">verify_signed_out_user</text>
</g>
<!-- DeviseController&#45;&gt;Devise::SessionsController -->
<g id="edge13" class="edge"><title>DeviseController&#45;&gt;Devise::SessionsController</title>
<path fill="none" stroke="black" d="M168.895,-214.265C202.185,-246.833 239.211,-283.056 271.308,-314.457"/>
</g>
<!-- Devise::PasswordsController -->
<g id="node17" class="node"><title>Devise::PasswordsController</title>
<path fill="none" stroke="black" d="M-79.4061,-346.95C-79.4061,-346.95 198.594,-346.95 198.594,-346.95 204.594,-346.95 210.594,-352.95 210.594,-358.95 210.594,-358.95 210.594,-531.95 210.594,-531.95 210.594,-537.95 204.594,-543.95 198.594,-543.95 198.594,-543.95 -79.4061,-543.95 -79.4061,-543.95 -85.4061,-543.95 -91.4061,-537.95 -91.4061,-531.95 -91.4061,-531.95 -91.4061,-358.95 -91.4061,-358.95 -91.4061,-352.95 -85.4061,-346.95 -79.4061,-346.95"/>
<text text-anchor="middle" x="59.5939" y="-528.75" font-family="Times,serif" font-size="14.00">Devise::PasswordsController</text>
<polyline fill="none" stroke="black" points="-91.4061,-520.95 210.594,-520.95 "/>
<text text-anchor="start" x="-83.4061" y="-505.75" font-family="Times,serif" font-size="14.00">create</text>
<text text-anchor="start" x="-83.4061" y="-490.75" font-family="Times,serif" font-size="14.00">edit</text>
<text text-anchor="start" x="-83.4061" y="-475.75" font-family="Times,serif" font-size="14.00">new</text>
<text text-anchor="start" x="-83.4061" y="-460.75" font-family="Times,serif" font-size="14.00">update</text>
<polyline fill="none" stroke="black" points="-91.4061,-452.95 210.594,-452.95 "/>
<text text-anchor="start" x="-83.4061" y="-437.75" font-family="Times,serif" font-size="14.00">after_resetting_password_path_for</text>
<text text-anchor="start" x="-83.4061" y="-422.75" font-family="Times,serif" font-size="14.00">after_sending_reset_password_instructions_path_for</text>
<text text-anchor="start" x="-83.4061" y="-407.75" font-family="Times,serif" font-size="14.00">assert_reset_token_passed</text>
<text text-anchor="start" x="-83.4061" y="-392.75" font-family="Times,serif" font-size="14.00">translation_scope</text>
<text text-anchor="start" x="-83.4061" y="-377.75" font-family="Times,serif" font-size="14.00">unlockable?</text>
<polyline fill="none" stroke="black" points="-91.4061,-369.95 210.594,-369.95 "/>
<text text-anchor="start" x="-83.4061" y="-354.75" font-family="Times,serif" font-size="14.00">_layout</text>
</g>
<!-- DeviseController&#45;&gt;Devise::PasswordsController -->
<g id="edge14" class="edge"><title>DeviseController&#45;&gt;Devise::PasswordsController</title>
<path fill="none" stroke="black" d="M64.9948,-317.102C64.5676,-327.253 64.1482,-337.219 63.7438,-346.831"/>
</g>
</g>
</svg>
