<?xml version="1.0" encoding="UTF-8" standalone="no"?>
<!DOCTYPE svg PUBLIC "-//W3C//DTD SVG 1.1//EN"
 "http://www.w3.org/Graphics/SVG/1.1/DTD/svg11.dtd">
<!-- Generated by graphviz version 2.38.0 (20140413.2041)
 -->
<!-- Title: models_diagram Pages: 1 -->
<svg width="538pt" height="302pt"
 viewBox="0.00 0.00 538.11 302.00" xmlns="http://www.w3.org/2000/svg" xmlns:xlink="http://www.w3.org/1999/xlink">
<g id="graph0" class="graph" transform="scale(1 1) rotate(0) translate(4 298)">
<title>models_diagram</title>
<polygon fill="none" stroke="none" points="-4,4 -4,-298 534.111,-298 534.111,4 -4,4"/>
<!-- _diagram_info -->
<g id="node1" class="node"><title>_diagram_info</title>
<text text-anchor="start" x="8" y="-279.6" font-family="Times,serif" font-size="13.00">Models diagram</text>
<text text-anchor="start" x="8" y="-265.6" font-family="Times,serif" font-size="13.00">Date: Apr 28 2018 &#45; 04:59</text>
<text text-anchor="start" x="8" y="-251.6" font-family="Times,serif" font-size="13.00">Migration version: 20180403065023</text>
<text text-anchor="start" x="8" y="-237.6" font-family="Times,serif" font-size="13.00">Generated by RailRoady 1.5.3</text>
<text text-anchor="start" x="8" y="-223.6" font-family="Times,serif" font-size="13.00">http://railroady.prestonlee.com</text>
</g>
<!-- Attempt -->
<g id="node2" class="node"><title>Attempt</title>
<ellipse fill="none" stroke="black" cx="470" cy="-90" rx="40.0939" ry="18"/>
<text text-anchor="middle" x="470" y="-86.3" font-family="Times,serif" font-size="14.00">Attempt</text>
</g>
<!-- Practice -->
<g id="node3" class="node"><title>Practice</title>
<ellipse fill="none" stroke="black" cx="80" cy="-162" rx="38.9931" ry="18"/>
<text text-anchor="middle" x="80" y="-158.3" font-family="Times,serif" font-size="14.00">Practice</text>
</g>
<!-- Theory -->
<g id="node4" class="node"><title>Theory</title>
<ellipse fill="none" stroke="black" cx="173" cy="-162" rx="36.2938" ry="18"/>
<text text-anchor="middle" x="173" y="-158.3" font-family="Times,serif" font-size="14.00">Theory</text>
</g>
<!-- ApplicationRecord -->
<g id="node5" class="node"><title>ApplicationRecord</title>
<ellipse fill="none" stroke="black" cx="309" cy="-255" rx="77.1866" ry="18"/>
<text text-anchor="middle" x="309" y="-251.3" font-family="Times,serif" font-size="14.00">ApplicationRecord</text>
</g>
<!-- ApplicationRecord&#45;&gt;Attempt -->
<g id="edge1" class="edge"><title>ApplicationRecord&#45;&gt;Attempt</title>
<path fill="none" stroke="black" d="M379.629,-247.39C423.879,-239.179 477.71,-220.847 506,-180 522.038,-156.843 501.212,-125.474 485.204,-106.827"/>
</g>
<!-- ApplicationRecord&#45;&gt;Practice -->
<g id="edge2" class="edge"><title>ApplicationRecord&#45;&gt;Practice</title>
<path fill="none" stroke="black" d="M275.713,-238.724C259.848,-231.59 240.545,-223.12 223,-216 202.024,-207.488 145.266,-186.7 109.888,-173.834"/>
</g>
<!-- ApplicationRecord&#45;&gt;Theory -->
<g id="edge3" class="edge"><title>ApplicationRecord&#45;&gt;Theory</title>
<path fill="none" stroke="black" d="M284.686,-237.731C258.862,-220.452 218.46,-193.418 193.982,-177.04"/>
</g>
<!-- Answer -->
<g id="node6" class="node"><title>Answer</title>
<ellipse fill="none" stroke="black" cx="409" cy="-18" rx="38.1938" ry="18"/>
<text text-anchor="middle" x="409" y="-14.3" font-family="Times,serif" font-size="14.00">Answer</text>
</g>
<!-- ApplicationRecord&#45;&gt;Answer -->
<g id="edge4" class="edge"><title>ApplicationRecord&#45;&gt;Answer</title>
<path fill="none" stroke="black" d="M382.9,-249.569C431.366,-242.368 491.412,-224.346 523,-180 532.925,-166.067 532.659,-92.4604 519,-72 501.992,-46.524 469.138,-32.9218 443.745,-25.9059"/>
</g>
<!-- Determination -->
<g id="node7" class="node"><title>Determination</title>
<ellipse fill="none" stroke="black" cx="363" cy="-162" rx="61.99" ry="18"/>
<text text-anchor="middle" x="363" y="-158.3" font-family="Times,serif" font-size="14.00">Determination</text>
</g>
<!-- ApplicationRecord&#45;&gt;Determination -->
<g id="edge5" class="edge"><title>ApplicationRecord&#45;&gt;Determination</title>
<path fill="none" stroke="black" d="M319.157,-236.884C328.811,-220.614 343.249,-196.284 352.889,-180.04"/>
</g>
<!-- Question -->
<g id="node8" class="node"><title>Question</title>
<ellipse fill="none" stroke="black" cx="255" cy="-90" rx="42.4939" ry="18"/>
<text text-anchor="middle" x="255" y="-86.3" font-family="Times,serif" font-size="14.00">Question</text>
</g>
<!-- ApplicationRecord&#45;&gt;Question -->
<g id="edge7" class="edge"><title>ApplicationRecord&#45;&gt;Question</title>
<path fill="none" stroke="black" d="M278.212,-238.331C262.106,-230.669 241.862,-221.859 223,-216 140.505,-190.375 87.1361,-246.499 32,-180 -19.6825,-117.666 135.462,-98.6862 213.314,-93.1565"/>
</g>
<!-- User -->
<g id="node9" class="node"><title>User</title>
<ellipse fill="none" stroke="black" cx="470" cy="-162" rx="27.0966" ry="18"/>
<text text-anchor="middle" x="470" y="-158.3" font-family="Times,serif" font-size="14.00">User</text>
</g>
<!-- ApplicationRecord&#45;&gt;User -->
<g id="edge9" class="edge"><title>ApplicationRecord&#45;&gt;User</title>
<path fill="none" stroke="black" d="M337.044,-238.149C369.297,-219.919 421.449,-190.442 449.904,-174.358"/>
</g>
<!-- Quiz -->
<g id="node10" class="node"><title>Quiz</title>
<ellipse fill="none" stroke="black" cx="255" cy="-162" rx="27.8951" ry="18"/>
<text text-anchor="middle" x="255" y="-158.3" font-family="Times,serif" font-size="14.00">Quiz</text>
</g>
<!-- ApplicationRecord&#45;&gt;Quiz -->
<g id="edge12" class="edge"><title>ApplicationRecord&#45;&gt;Quiz</title>
<path fill="none" stroke="black" d="M298.843,-236.884C289.005,-220.305 274.201,-195.357 264.568,-179.123"/>
</g>
<!-- Question&#45;&gt;Answer -->
<g id="edge6" class="edge"><title>Question&#45;&gt;Answer</title>
<path fill="none" stroke="#f9e784" d="M290.489,-72.8686C315.317,-61.583 348.359,-46.5643 373.245,-35.2522"/>
<ellipse fill="none" stroke="#f9e784" cx="286.53" cy="-74.6683" rx="4.00002" ry="4.00002"/>
<polygon fill="#f9e784" stroke="#f9e784" points="373.246,-35.2519 384.212,-35.2104 377.798,-33.1828 382.35,-31.1138 382.35,-31.1138 382.35,-31.1138 377.798,-33.1828 380.488,-27.0171 373.246,-35.2519 373.246,-35.2519"/>
</g>
<!-- User&#45;&gt;Attempt -->
<g id="edge8" class="edge"><title>User&#45;&gt;Attempt</title>
<path fill="none" stroke="#908dea" d="M470,-135.64C470,-130.063 470,-124.132 470,-118.476"/>
<ellipse fill="none" stroke="#908dea" cx="470" cy="-139.697" rx="4" ry="4"/>
<polygon fill="#908dea" stroke="#908dea" points="470,-118.104 474.5,-108.104 470,-113.104 470,-108.104 470,-108.104 470,-108.104 470,-113.104 465.5,-108.104 470,-118.104 470,-118.104"/>
</g>
<!-- Quiz&#45;&gt;Attempt -->
<g id="edge11" class="edge"><title>Quiz&#45;&gt;Attempt</title>
<path fill="none" stroke="#e7399a" d="M284.327,-147.071C286.903,-145.986 289.486,-144.946 292,-144 336.822,-127.127 389.555,-111.991 425.929,-102.257"/>
<ellipse fill="none" stroke="#e7399a" cx="280.36" cy="-148.808" rx="4.00002" ry="4.00002"/>
<polygon fill="#e7399a" stroke="#e7399a" points="426.069,-102.22 436.888,-104.008 430.902,-100.939 435.735,-99.6582 435.735,-99.6582 435.735,-99.6582 430.902,-100.939 434.582,-95.3084 426.069,-102.22 426.069,-102.22"/>
</g>
<!-- Quiz&#45;&gt;Question -->
<g id="edge10" class="edge"><title>Quiz&#45;&gt;Question</title>
<path fill="none" stroke="#2d3821" d="M255,-135.64C255,-130.063 255,-124.132 255,-118.476"/>
<ellipse fill="none" stroke="#2d3821" cx="255" cy="-139.697" rx="4" ry="4"/>
<polygon fill="#2d3821" stroke="#2d3821" points="255,-118.104 259.5,-108.104 255,-113.104 255,-108.104 255,-108.104 255,-108.104 255,-113.104 250.5,-108.104 255,-118.104 255,-118.104"/>
</g>
</g>
</svg>
