<?xml version="1.0" encoding="UTF-8" standalone="no"?>
<!DOCTYPE svg PUBLIC "-//W3C//DTD SVG 1.1//EN"
 "http://www.w3.org/Graphics/SVG/1.1/DTD/svg11.dtd">
<!-- Generated by graphviz version 2.38.0 (20140413.2041)
 -->
<!-- Title: models_diagram Pages: 1 -->
<svg width="1535pt" height="680pt"
 viewBox="0.00 0.00 1535.44 680.00" xmlns="http://www.w3.org/2000/svg" xmlns:xlink="http://www.w3.org/1999/xlink">
<g id="graph0" class="graph" transform="scale(1 1) rotate(0) translate(4 676)">
<title>models_diagram</title>
<polygon fill="none" stroke="none" points="-4,4 -4,-676 1531.44,-676 1531.44,4 -4,4"/>
<!-- _diagram_info -->
<g id="node1" class="node"><title>_diagram_info</title>
<text text-anchor="start" x="539.266" y="-657.6" font-family="Times,serif" font-size="13.00">Models diagram</text>
<text text-anchor="start" x="539.266" y="-643.6" font-family="Times,serif" font-size="13.00">Date: Apr 28 2018 &#45; 04:59</text>
<text text-anchor="start" x="539.266" y="-629.6" font-family="Times,serif" font-size="13.00">Migration version: 20180403065023</text>
<text text-anchor="start" x="539.266" y="-615.6" font-family="Times,serif" font-size="13.00">Generated by RailRoady 1.5.3</text>
<text text-anchor="start" x="539.266" y="-601.6" font-family="Times,serif" font-size="13.00">http://railroady.prestonlee.com</text>
</g>
<!-- Attempt -->
<g id="node2" class="node"><title>Attempt</title>
<path fill="none" stroke="black" d="M1158.27,-158.5C1158.27,-158.5 1378.27,-158.5 1378.27,-158.5 1384.27,-158.5 1390.27,-164.5 1390.27,-170.5 1390.27,-170.5 1390.27,-267.5 1390.27,-267.5 1390.27,-273.5 1384.27,-279.5 1378.27,-279.5 1378.27,-279.5 1158.27,-279.5 1158.27,-279.5 1152.27,-279.5 1146.27,-273.5 1146.27,-267.5 1146.27,-267.5 1146.27,-170.5 1146.27,-170.5 1146.27,-164.5 1152.27,-158.5 1158.27,-158.5"/>
<text text-anchor="middle" x="1268.27" y="-264.3" font-family="Times,serif" font-size="14.00">Attempt</text>
<polyline fill="none" stroke="black" points="1146.27,-256.5 1390.27,-256.5 "/>
<text text-anchor="start" x="1154.27" y="-241.3" font-family="Times,serif" font-size="14.00">id :bigint</text>
<text text-anchor="start" x="1154.27" y="-226.3" font-family="Times,serif" font-size="14.00">user_id :bigint</text>
<text text-anchor="start" x="1154.27" y="-211.3" font-family="Times,serif" font-size="14.00">quiz_id :bigint</text>
<text text-anchor="start" x="1154.27" y="-196.3" font-family="Times,serif" font-size="14.00">created_at :timestamp without time zone</text>
<text text-anchor="start" x="1154.27" y="-181.3" font-family="Times,serif" font-size="14.00">updated_at :timestamp without time zone</text>
<text text-anchor="start" x="1154.27" y="-166.3" font-family="Times,serif" font-size="14.00">answers :text</text>
</g>
<!-- Practice -->
<g id="node3" class="node"><title>Practice</title>
<path fill="none" stroke="black" d="M75.2662,-384C75.2662,-384 295.266,-384 295.266,-384 301.266,-384 307.266,-390 307.266,-396 307.266,-396 307.266,-478 307.266,-478 307.266,-484 301.266,-490 295.266,-490 295.266,-490 75.2662,-490 75.2662,-490 69.2662,-490 63.2662,-484 63.2662,-478 63.2662,-478 63.2662,-396 63.2662,-396 63.2662,-390 69.2662,-384 75.2662,-384"/>
<text text-anchor="middle" x="185.266" y="-474.8" font-family="Times,serif" font-size="14.00">Practice</text>
<polyline fill="none" stroke="black" points="63.2662,-467 307.266,-467 "/>
<text text-anchor="start" x="71.2662" y="-451.8" font-family="Times,serif" font-size="14.00">id :bigint</text>
<text text-anchor="start" x="71.2662" y="-436.8" font-family="Times,serif" font-size="14.00">title :character varying</text>
<text text-anchor="start" x="71.2662" y="-421.8" font-family="Times,serif" font-size="14.00">body :text</text>
<text text-anchor="start" x="71.2662" y="-406.8" font-family="Times,serif" font-size="14.00">created_at :timestamp without time zone</text>
<text text-anchor="start" x="71.2662" y="-391.8" font-family="Times,serif" font-size="14.00">updated_at :timestamp without time zone</text>
</g>
<!-- Theory -->
<g id="node4" class="node"><title>Theory</title>
<path fill="none" stroke="black" d="M337.266,-384C337.266,-384 557.266,-384 557.266,-384 563.266,-384 569.266,-390 569.266,-396 569.266,-396 569.266,-478 569.266,-478 569.266,-484 563.266,-490 557.266,-490 557.266,-490 337.266,-490 337.266,-490 331.266,-490 325.266,-484 325.266,-478 325.266,-478 325.266,-396 325.266,-396 325.266,-390 331.266,-384 337.266,-384"/>
<text text-anchor="middle" x="447.266" y="-474.8" font-family="Times,serif" font-size="14.00">Theory</text>
<polyline fill="none" stroke="black" points="325.266,-467 569.266,-467 "/>
<text text-anchor="start" x="333.266" y="-451.8" font-family="Times,serif" font-size="14.00">id :bigint</text>
<text text-anchor="start" x="333.266" y="-436.8" font-family="Times,serif" font-size="14.00">title :character varying</text>
<text text-anchor="start" x="333.266" y="-421.8" font-family="Times,serif" font-size="14.00">body :text</text>
<text text-anchor="start" x="333.266" y="-406.8" font-family="Times,serif" font-size="14.00">created_at :timestamp without time zone</text>
<text text-anchor="start" x="333.266" y="-391.8" font-family="Times,serif" font-size="14.00">updated_at :timestamp without time zone</text>
</g>
<!-- ApplicationRecord -->
<g id="node5" class="node"><title>ApplicationRecord</title>
<ellipse fill="none" stroke="black" cx="840.266" cy="-633" rx="77.1866" ry="18"/>
<text text-anchor="middle" x="840.266" y="-629.3" font-family="Times,serif" font-size="14.00">ApplicationRecord</text>
</g>
<!-- ApplicationRecord&#45;&gt;Attempt -->
<g id="edge1" class="edge"><title>ApplicationRecord&#45;&gt;Attempt</title>
<path fill="none" stroke="black" d="M914.977,-628.133C1066.9,-619.504 1400.39,-596.363 1434.27,-558 1469.86,-517.691 1461.14,-362.583 1434.27,-316 1423.62,-297.544 1407.92,-282.316 1390.36,-269.856"/>
</g>
<!-- ApplicationRecord&#45;&gt;Practice -->
<g id="edge2" class="edge"><title>ApplicationRecord&#45;&gt;Practice</title>
<path fill="none" stroke="black" d="M811.289,-616.283C795.008,-608.207 774.041,-599.029 754.266,-594 564.969,-545.859 495.26,-636.181 316.266,-558 281.925,-543.001 250.673,-515.208 227.313,-490.145"/>
</g>
<!-- ApplicationRecord&#45;&gt;Theory -->
<g id="edge3" class="edge"><title>ApplicationRecord&#45;&gt;Theory</title>
<path fill="none" stroke="black" d="M809.44,-616.453C793.324,-608.823 773.082,-600.005 754.266,-594 678.204,-569.726 649.39,-594.279 578.266,-558 545.709,-541.393 515.223,-514.448 491.867,-490.295"/>
</g>
<!-- Answer -->
<g id="node6" class="node"><title>Answer</title>
<path fill="none" stroke="black" d="M990.266,-0.5C990.266,-0.5 1210.27,-0.5 1210.27,-0.5 1216.27,-0.5 1222.27,-6.5 1222.27,-12.5 1222.27,-12.5 1222.27,-109.5 1222.27,-109.5 1222.27,-115.5 1216.27,-121.5 1210.27,-121.5 1210.27,-121.5 990.266,-121.5 990.266,-121.5 984.266,-121.5 978.266,-115.5 978.266,-109.5 978.266,-109.5 978.266,-12.5 978.266,-12.5 978.266,-6.5 984.266,-0.5 990.266,-0.5"/>
<text text-anchor="middle" x="1100.27" y="-106.3" font-family="Times,serif" font-size="14.00">Answer</text>
<polyline fill="none" stroke="black" points="978.266,-98.5 1222.27,-98.5 "/>
<text text-anchor="start" x="986.266" y="-83.3" font-family="Times,serif" font-size="14.00">id :bigint</text>
<text text-anchor="start" x="986.266" y="-68.3" font-family="Times,serif" font-size="14.00">body :character varying</text>
<text text-anchor="start" x="986.266" y="-53.3" font-family="Times,serif" font-size="14.00">question_id :bigint</text>
<text text-anchor="start" x="986.266" y="-38.3" font-family="Times,serif" font-size="14.00">created_at :timestamp without time zone</text>
<text text-anchor="start" x="986.266" y="-23.3" font-family="Times,serif" font-size="14.00">updated_at :timestamp without time zone</text>
<text text-anchor="start" x="986.266" y="-8.3" font-family="Times,serif" font-size="14.00">atrue :boolean</text>
</g>
<!-- ApplicationRecord&#45;&gt;Answer -->
<g id="edge4" class="edge"><title>ApplicationRecord&#45;&gt;Answer</title>
<path fill="none" stroke="black" d="M915.416,-628.511C1072.42,-620.451 1423.68,-598.093 1459.27,-558 1578.6,-423.553 1529.66,-281.75 1399.27,-158 1351.52,-112.681 1282.29,-88.7562 1222.47,-76.1254"/>
</g>
<!-- Determination -->
<g id="node7" class="node"><title>Determination</title>
<path fill="none" stroke="black" d="M861.266,-384C861.266,-384 1081.27,-384 1081.27,-384 1087.27,-384 1093.27,-390 1093.27,-396 1093.27,-396 1093.27,-478 1093.27,-478 1093.27,-484 1087.27,-490 1081.27,-490 1081.27,-490 861.266,-490 861.266,-490 855.266,-490 849.266,-484 849.266,-478 849.266,-478 849.266,-396 849.266,-396 849.266,-390 855.266,-384 861.266,-384"/>
<text text-anchor="middle" x="971.266" y="-474.8" font-family="Times,serif" font-size="14.00">Determination</text>
<polyline fill="none" stroke="black" points="849.266,-467 1093.27,-467 "/>
<text text-anchor="start" x="857.266" y="-451.8" font-family="Times,serif" font-size="14.00">id :bigint</text>
<text text-anchor="start" x="857.266" y="-436.8" font-family="Times,serif" font-size="14.00">title :character varying</text>
<text text-anchor="start" x="857.266" y="-421.8" font-family="Times,serif" font-size="14.00">body :text</text>
<text text-anchor="start" x="857.266" y="-406.8" font-family="Times,serif" font-size="14.00">created_at :timestamp without time zone</text>
<text text-anchor="start" x="857.266" y="-391.8" font-family="Times,serif" font-size="14.00">updated_at :timestamp without time zone</text>
</g>
<!-- ApplicationRecord&#45;&gt;Determination -->
<g id="edge5" class="edge"><title>ApplicationRecord&#45;&gt;Determination</title>
<path fill="none" stroke="black" d="M851.662,-615.123C870.275,-587.56 907.938,-531.784 936.054,-490.147"/>
</g>
<!-- Question -->
<g id="node8" class="node"><title>Question</title>
<path fill="none" stroke="black" d="M599.266,-166C599.266,-166 819.266,-166 819.266,-166 825.266,-166 831.266,-172 831.266,-178 831.266,-178 831.266,-260 831.266,-260 831.266,-266 825.266,-272 819.266,-272 819.266,-272 599.266,-272 599.266,-272 593.266,-272 587.266,-266 587.266,-260 587.266,-260 587.266,-178 587.266,-178 587.266,-172 593.266,-166 599.266,-166"/>
<text text-anchor="middle" x="709.266" y="-256.8" font-family="Times,serif" font-size="14.00">Question</text>
<polyline fill="none" stroke="black" points="587.266,-249 831.266,-249 "/>
<text text-anchor="start" x="595.266" y="-233.8" font-family="Times,serif" font-size="14.00">id :bigint</text>
<text text-anchor="start" x="595.266" y="-218.8" font-family="Times,serif" font-size="14.00">title :character varying</text>
<text text-anchor="start" x="595.266" y="-203.8" font-family="Times,serif" font-size="14.00">quiz_id :bigint</text>
<text text-anchor="start" x="595.266" y="-188.8" font-family="Times,serif" font-size="14.00">created_at :timestamp without time zone</text>
<text text-anchor="start" x="595.266" y="-173.8" font-family="Times,serif" font-size="14.00">updated_at :timestamp without time zone</text>
</g>
<!-- ApplicationRecord&#45;&gt;Question -->
<g id="edge7" class="edge"><title>ApplicationRecord&#45;&gt;Question</title>
<path fill="none" stroke="black" d="M811.737,-616.24C795.42,-608.043 774.274,-598.763 754.266,-594 678.503,-575.963 107.903,-614.466 54.2662,-558 -19.8082,-480.018 -16.0567,-397.381 54.2662,-316 121.756,-237.898 417.01,-222.135 587.175,-219.681"/>
</g>
<!-- User -->
<g id="node9" class="node"><title>User</title>
<path fill="none" stroke="black" d="M1123.77,-316.5C1123.77,-316.5 1412.77,-316.5 1412.77,-316.5 1418.77,-316.5 1424.77,-322.5 1424.77,-328.5 1424.77,-328.5 1424.77,-545.5 1424.77,-545.5 1424.77,-551.5 1418.77,-557.5 1412.77,-557.5 1412.77,-557.5 1123.77,-557.5 1123.77,-557.5 1117.77,-557.5 1111.77,-551.5 1111.77,-545.5 1111.77,-545.5 1111.77,-328.5 1111.77,-328.5 1111.77,-322.5 1117.77,-316.5 1123.77,-316.5"/>
<text text-anchor="middle" x="1268.27" y="-542.3" font-family="Times,serif" font-size="14.00">User</text>
<polyline fill="none" stroke="black" points="1111.77,-534.5 1424.77,-534.5 "/>
<text text-anchor="start" x="1119.77" y="-519.3" font-family="Times,serif" font-size="14.00">id :bigint</text>
<text text-anchor="start" x="1119.77" y="-504.3" font-family="Times,serif" font-size="14.00">email :character varying</text>
<text text-anchor="start" x="1119.77" y="-489.3" font-family="Times,serif" font-size="14.00">encrypted_password :character varying</text>
<text text-anchor="start" x="1119.77" y="-474.3" font-family="Times,serif" font-size="14.00">reset_password_token :character varying</text>
<text text-anchor="start" x="1119.77" y="-459.3" font-family="Times,serif" font-size="14.00">reset_password_sent_at :timestamp without time zone</text>
<text text-anchor="start" x="1119.77" y="-444.3" font-family="Times,serif" font-size="14.00">remember_created_at :timestamp without time zone</text>
<text text-anchor="start" x="1119.77" y="-429.3" font-family="Times,serif" font-size="14.00">sign_in_count :integer</text>
<text text-anchor="start" x="1119.77" y="-414.3" font-family="Times,serif" font-size="14.00">current_sign_in_at :timestamp without time zone</text>
<text text-anchor="start" x="1119.77" y="-399.3" font-family="Times,serif" font-size="14.00">last_sign_in_at :timestamp without time zone</text>
<text text-anchor="start" x="1119.77" y="-384.3" font-family="Times,serif" font-size="14.00">current_sign_in_ip :character varying</text>
<text text-anchor="start" x="1119.77" y="-369.3" font-family="Times,serif" font-size="14.00">last_sign_in_ip :character varying</text>
<text text-anchor="start" x="1119.77" y="-354.3" font-family="Times,serif" font-size="14.00">created_at :timestamp without time zone</text>
<text text-anchor="start" x="1119.77" y="-339.3" font-family="Times,serif" font-size="14.00">updated_at :timestamp without time zone</text>
<text text-anchor="start" x="1119.77" y="-324.3" font-family="Times,serif" font-size="14.00">admin :boolean</text>
</g>
<!-- ApplicationRecord&#45;&gt;User -->
<g id="edge9" class="edge"><title>ApplicationRecord&#45;&gt;User</title>
<path fill="none" stroke="black" d="M899.636,-621.432C954.181,-610.304 1036.32,-589.906 1102.27,-558 1105.31,-556.529 1108.35,-555.001 1111.39,-553.424"/>
</g>
<!-- Quiz -->
<g id="node10" class="node"><title>Quiz</title>
<path fill="none" stroke="black" d="M599.266,-391.5C599.266,-391.5 819.266,-391.5 819.266,-391.5 825.266,-391.5 831.266,-397.5 831.266,-403.5 831.266,-403.5 831.266,-470.5 831.266,-470.5 831.266,-476.5 825.266,-482.5 819.266,-482.5 819.266,-482.5 599.266,-482.5 599.266,-482.5 593.266,-482.5 587.266,-476.5 587.266,-470.5 587.266,-470.5 587.266,-403.5 587.266,-403.5 587.266,-397.5 593.266,-391.5 599.266,-391.5"/>
<text text-anchor="middle" x="709.266" y="-467.3" font-family="Times,serif" font-size="14.00">Quiz</text>
<polyline fill="none" stroke="black" points="587.266,-459.5 831.266,-459.5 "/>
<text text-anchor="start" x="595.266" y="-444.3" font-family="Times,serif" font-size="14.00">id :bigint</text>
<text text-anchor="start" x="595.266" y="-429.3" font-family="Times,serif" font-size="14.00">title :character varying</text>
<text text-anchor="start" x="595.266" y="-414.3" font-family="Times,serif" font-size="14.00">created_at :timestamp without time zone</text>
<text text-anchor="start" x="595.266" y="-399.3" font-family="Times,serif" font-size="14.00">updated_at :timestamp without time zone</text>
</g>
<!-- ApplicationRecord&#45;&gt;Quiz -->
<g id="edge12" class="edge"><title>ApplicationRecord&#45;&gt;Quiz</title>
<path fill="none" stroke="black" d="M828.87,-615.123C809.137,-585.9 767.991,-524.966 739.511,-482.79"/>
</g>
<!-- Question&#45;&gt;Answer -->
<g id="edge6" class="edge"><title>Question&#45;&gt;Answer</title>
<path fill="none" stroke="#925d7e" d="M838.816,-166.312C880.535,-149.668 926.793,-131.212 968.658,-114.509"/>
<ellipse fill="none" stroke="#925d7e" cx="835.088" cy="-167.8" rx="4.00001" ry="4.00001"/>
<polygon fill="#925d7e" stroke="#925d7e" points="968.79,-114.456 979.745,-114.93 973.434,-112.603 978.078,-110.75 978.078,-110.75 978.078,-110.75 973.434,-112.603 976.41,-106.571 968.79,-114.456 968.79,-114.456"/>
</g>
<!-- User&#45;&gt;Attempt -->
<g id="edge8" class="edge"><title>User&#45;&gt;Attempt</title>
<path fill="none" stroke="#3cccc4" d="M1268.27,-308.048C1268.27,-301.932 1268.27,-295.905 1268.27,-290.048"/>
<ellipse fill="none" stroke="#3cccc4" cx="1268.27" cy="-312.313" rx="4" ry="4"/>
<polygon fill="#3cccc4" stroke="#3cccc4" points="1268.27,-289.708 1272.77,-279.708 1268.27,-284.708 1268.27,-279.708 1268.27,-279.708 1268.27,-279.708 1268.27,-284.708 1263.77,-279.708 1268.27,-289.708 1268.27,-289.708"/>
</g>
<!-- Quiz&#45;&gt;Attempt -->
<g id="edge11" class="edge"><title>Quiz&#45;&gt;Attempt</title>
<path fill="none" stroke="#3f4e92" d="M752.372,-385.66C775.966,-361.151 807.107,-333.31 840.266,-316 932.568,-267.815 1048.37,-243.716 1136.23,-231.719"/>
<ellipse fill="none" stroke="#3f4e92" cx="749.599" cy="-388.581" rx="4.00002" ry="4.00002"/>
<polygon fill="#3f4e92" stroke="#3f4e92" points="1136.35,-231.704 1146.86,-234.846 1141.31,-231.045 1146.26,-230.386 1146.26,-230.386 1146.26,-230.386 1141.31,-231.045 1145.67,-225.925 1136.35,-231.704 1136.35,-231.704"/>
</g>
<!-- Quiz&#45;&gt;Question -->
<g id="edge10" class="edge"><title>Quiz&#45;&gt;Question</title>
<path fill="none" stroke="#cb7ebb" d="M709.266,-382.902C709.266,-352.51 709.266,-314.215 709.266,-282.391"/>
<ellipse fill="none" stroke="#cb7ebb" cx="709.266" cy="-387.245" rx="4" ry="4"/>
<polygon fill="#cb7ebb" stroke="#cb7ebb" points="709.266,-282.305 713.766,-272.305 709.266,-277.305 709.266,-272.305 709.266,-272.305 709.266,-272.305 709.266,-277.305 704.766,-272.305 709.266,-282.305 709.266,-282.305"/>
</g>
</g>
</svg>
